<svg width="1621" height="1103" viewBox="0 0 1621 1103" fill="none" xmlns="http://www.w3.org/2000/svg">
<path d="M920.287 825.002C913.767 824.583 910.688 821.579 911.049 815.99C911.23 813.196 912.124 810.214 913.732 807.044L1125.58 373.146C1129.35 365.439 1135.2 361.84 1143.12 362.349L1208.78 366.572C1215.3 366.991 1218.36 370.228 1217.97 376.282C1217.79 379.076 1216.91 381.825 1215.33 384.53L1003.44 819.126C1000.16 826.398 994.101 829.749 985.253 829.18L920.287 825.002Z" fill="white"/>
<path d="M1351.62 857.6L1271.22 789.2C1282.02 774.8 1294.22 759.2 1307.82 742.4C1321.82 725.6 1336.02 708.8 1350.42 692C1365.22 675.2 1379.22 659.6 1392.42 645.2C1405.62 630.8 1416.82 618.8 1426.02 609.2C1417.22 600 1406.62 588.4 1394.22 574.4C1382.22 560 1369.42 545 1355.82 529.4C1342.62 513.4 1329.82 497.8 1317.42 482.6C1305.02 467.4 1294.42 454 1285.62 442.4C1276.82 430.4 1271.02 421.4 1268.22 415.4L1355.22 355.4C1370.02 374.6 1386.42 395.4 1404.42 417.8C1422.82 440.2 1441.62 463 1460.82 486.2C1480.02 509 1499.02 531.4 1517.82 553.4C1536.62 575 1554.02 594.8 1570.02 612.8C1545.22 634.8 1520.22 660 1495.02 688.4C1469.82 716.4 1445.22 745.2 1421.22 774.8C1397.22 804.4 1374.02 832 1351.62 857.6Z" fill="#6639F9"/>
<path d="M269.381 857.6L349.781 789.2C338.981 774.8 326.781 759.2 313.181 742.4C299.181 725.6 284.981 708.8 270.581 692C255.781 675.2 241.781 659.6 228.581 645.2C215.381 630.8 204.181 618.8 194.981 609.2C203.781 600 214.381 588.4 226.781 574.4C238.781 560 251.581 545 265.181 529.4C278.381 513.4 291.181 497.8 303.581 482.6C315.981 467.4 326.581 454 335.381 442.4C344.181 430.4 349.981 421.4 352.781 415.4L265.781 355.4C250.981 374.6 234.581 395.4 216.581 417.8C198.181 440.2 179.381 463 160.181 486.2C140.981 509 121.981 531.4 103.181 553.4C84.3812 575 66.9812 594.8 50.9812 612.8C75.7812 634.8 100.781 660 125.981 688.4C151.181 716.4 175.781 745.2 199.781 774.8C223.781 804.4 246.981 832 269.381 857.6Z" fill="#6639F9"/>
<path d="M596.218 927.787C534.618 927.787 481.451 909.821 436.718 873.887C428.651 867.287 424.618 861.054 424.618 855.187C424.618 850.787 427.185 844.187 432.318 835.387L476.318 757.287C481.451 747.754 487.685 742.987 495.018 742.987C498.685 742.987 505.651 745.554 515.918 750.687C528.385 758.021 539.018 763.521 547.818 767.187C557.351 770.854 568.718 772.687 581.918 772.687C598.051 772.687 610.518 768.287 619.318 759.487C628.118 751.421 635.451 738.587 641.318 720.987L427.918 269.987C424.251 262.654 422.418 255.687 422.418 249.087C422.418 242.487 424.251 237.354 427.918 233.687C432.318 230.021 438.185 228.187 445.518 228.187H607.218C627.018 228.187 640.218 237.354 646.818 255.687L741.418 506.487L836.018 255.687C839.685 246.154 844.451 239.187 850.318 234.787C856.185 230.387 864.618 228.187 875.618 228.187H1037.32C1051.98 228.187 1059.32 235.154 1059.32 249.087C1059.32 254.221 1057.48 261.187 1053.82 269.987L849.218 704.487C823.551 758.754 799.718 801.654 777.718 833.187C755.718 864.721 730.051 888.187 700.718 903.587C672.118 919.721 637.285 927.787 596.218 927.787Z" fill="white"/>
</svg>
